PathFileType	4	(X/Y/Z)	walk-thru1-2-TP.trc
DataRate	CameraRate	NumFrames	NumMarkers	Units	OrigDataRate	OrigDataStartFrame	OrigNumFrames
120.00	120.00	       4	60	mm	120.00	189	       502
Frame#	Time	Top.Head			Front.Head			Rear.Head			Jaw			C7			R.Clavicle			L.Clavicle			R.Shoulder			L.Shoulder			R.Scapula			L.Scapula			R.Scap.Inf			R.Biceps.Lateral			R.Elbow			R.Elbow.Medial			R.Forearm			R.Ulna			R.Radius			R.Wrist			R.Thumb.M1			R.Thumb.M2			R.Thumb.M3			R.Finger3.M1			R.Finger3.M2			R.Finger3.M3			L.Biceps.Lateral			L.Elbow			L.Elbow.Medial			L.Forearm			L.Ulna			L.Radius			L.Wrist			L.Thumb.M1			L.Thumb.M2			L.Thumb.M3			L.Finger3.M1			L.Finger3.M2			L.Finger3.M3			V.Sacral			R.ASIS			L.ASIS			R.Thigh			R.Thigh.Front			R.Knee			R.Knee.Medial			R.Shank			R.Ankle			R.Ankle.Medial			R.Heel			R.Toe			R.MedFoot			L.Thigh			L.Knee			L.Knee.Medial			L.Shank			L.Ankle			L.Ankle.Medial			L.Heel			L.Toe			L.MedFoot			V_mid_ASIS			V_R_Knee_JC			V_L_Knee_JC			V_R_Elbow_JC			V_L_Elbow_JC			V_R_Ankle_JC			V_L_Ankle_JC			V_R_Wrist_JC			V_L_Wrist_JC			V_R_ScaTrpz_1stMC_JC			V_R_1stMC_1stPP_JC			V_R_1stPP_1stDP_JC			V_R_LunCap_3rdMC_JC			V_R_3rdMC_3rdPP_JC			V_R_3rdPP_3rdMP_JC			V_R_3rdMP_3rdDP_JC			V_L_ScaTrpz_1stMC_JC			V_L_1stMC_1stPP_JC			V_L_1stPP_1stDP_JC			V_L_LunCap_3rdMC_JC			V_L_3rdMC_3rdPP_JC			V_L_3rdPP_3rdMP_JC			V_L_3rdMP_3rdPP_JC			V_ROOT_JC			V_R_Hip_JC			V_L_Hip_JC			V_R_GlenHum_JC			V_L_GlenHum_JC			V_ForeHead_Ctr			V_Vertex			V_Sagit_Lambdoid_Suture			V_R_FrontoTemp			V_L_FrontoTemporal			V_R_ParietalOccip			V_L_ParietalOcciptal			V_R_Temporal			V_L_Temporal			V_mid_FrontRearHead			V_mid_RLGlenHumCtrs			V_C7_vert			V_C1_vert			V_Mid_Hip			
		X1	Y1	Z1	X2	Y2	Z2	X3	Y3	Z3	X4	Y4	Z4	X5	Y5	Z5	X6	Y6	Z6	X7	Y7	Z7	X8	Y8	Z8	X9	Y9	Z9	X10	Y10	Z10	X11	Y11	Z11	X12	Y12	Z12	X13	Y13	Z13	X14	Y14	Z14	X15	Y15	Z15	X16	Y16	Z16	X17	Y17	Z17	X18	Y18	Z18	X19	Y19	Z19	X20	Y20	Z20	X21	Y21	Z21	X22	Y22	Z22	X23	Y23	Z23	X24	Y24	Z24	X25	Y25	Z25	X26	Y26	Z26	X27	Y27	Z27	X28	Y28	Z28	X29	Y29	Z29	X30	Y30	Z30	X31	Y31	Z31	X32	Y32	Z32	X33	Y33	Z33	X34	Y34	Z34	X35	Y35	Z35	X36	Y36	Z36	X37	Y37	Z37	X38	Y38	Z38	X39	Y39	Z39	X40	Y40	Z40	X41	Y41	Z41	X42	Y42	Z42	X43	Y43	Z43	X44	Y44	Z44	X45	Y45	Z45	X46	Y46	Z46	X47	Y47	Z47	X48	Y48	Z48	X49	Y49	Z49	X50	Y50	Z50	X51	Y51	Z51	X52	Y52	Z52	X53	Y53	Z53	X54	Y54	Z54	X55	Y55	Z55	X56	Y56	Z56	X57	Y57	Z57	X58	Y58	Z58	X59	Y59	Z59	X60	Y60	Z60	

189	1.567	289.15805	32.48457	1748.61780	383.08939	11.03821	1622.25623	154.64026	40.75734	1680.49561	284.08698	14.69876	1452.45105	56.17702	24.39322	1555.03418	153.00230	-97.97096	1476.38806	157.20241	148.70552	1460.05908	99.56641	-202.38737	1467.44202	115.09361	251.92918	1458.45630	-11.32848	-72.21676	1468.39624	-15.69200	119.67397	1458.03406	-43.56059	-74.85435	1378.76990	50.99174	-234.51898	1330.54565	-25.41723	-261.17657	1153.34985	-16.75071	-165.00778	1143.10901	64.29893	-262.91373	1081.68506	-1.37111	-264.16333	950.56238	107.71211	-262.08780	911.82104	106.13151	-308.83591	888.55933	129.38530	-261.80936	868.76550	139.92570	-242.92062	818.73425	144.56856	-254.96535	768.07202	126.71777	-333.54379	810.90338	97.41054	-291.18185	747.61285	77.01266	-239.77205	779.38733	65.15703	285.33627	1313.13208	14.63590	307.54874	1142.21729	-2.92972	216.32558	1113.61389	105.02856	304.56790	1071.19934	61.59745	334.77484	960.59314	163.31361	311.75739	918.54480	150.36958	355.44150	885.89435	195.08910	311.91208	868.61035	218.71367	286.58057	826.48187	236.14497	292.56531	779.96442	191.18529	370.67441	794.13495	200.03954	341.65570	734.98914	189.11531	283.51663	730.38177	-68.60400	14.09595	1105.30994	128.27838	-172.80643	1044.57178	117.14266	182.68890	1045.89563	180.66144	-171.33167	680.56396	276.53448	-78.45927	606.91125	246.88268	-140.53435	538.75336	232.96378	-27.18455	530.70361	303.99112	-105.23357	330.32559	264.98044	-145.06462	89.41348	278.21310	-40.59884	110.55647	211.58771	-95.86611	44.41696	429.78482	-90.93102	64.62006	376.07086	-62.03848	94.66384	39.33638	171.21016	659.67432	11.83390	143.66454	515.17255	-2.74717	33.62243	501.27216	-44.32564	96.02853	312.80035	-210.21056	104.72237	102.34585	-154.87392	12.38690	121.45618	-252.99806	32.10083	76.93127	-37.69060	103.85976	39.93651	-92.20235	55.45213	87.12252																																																																																																																															
190	1.575	296.85632	30.91142	1748.93958	389.25955	9.70267	1623.04333	160.91818	39.13584	1682.08240	290.61682	12.91204	1452.62451	62.55740	22.44287	1556.08191	160.45616	-98.82139	1475.76550	164.23740	146.62080	1459.84143	106.51511	-204.63049	1467.46387	120.27496	249.59222	1459.82568	-5.02992	-74.67482	1468.60889	-9.45525	118.85337	1458.72449	-37.21790	-78.22041	1379.63708	59.09501	-236.31387	1330.23621	-18.21100	-262.66037	1152.67847	-9.18481	-166.58510	1142.10413	72.12346	-263.17624	1080.28650	6.61650	-264.64737	948.31860	115.66965	-259.70297	911.23322	114.72578	-308.42538	888.33716	136.99628	-260.30685	865.79602	146.82730	-243.63666	815.37640	149.57826	-258.47662	764.40979	135.08972	-335.69205	811.93341	105.77330	-297.08276	746.42151	84.05624	-245.66740	777.62054	70.12583	282.26324	1313.50183	18.03270	306.15369	1142.80664	2.84337	213.86974	1113.42517	109.97630	304.02005	1070.81958	66.62266	333.55960	961.21405	167.86932	309.97430	918.73431	152.81133	354.20087	886.14355	199.20613	309.71445	869.23206	222.32594	286.76453	826.38641	238.98163	291.22238	779.71362	194.72401	370.23062	794.16095	203.27338	340.72986	734.62598	193.08978	282.56281	730.60834	-62.25118	10.96166	1104.55444	134.82494	-173.32613	1045.12427	122.40379	180.26724	1045.24939	187.09946	-170.56480	680.63489	283.55093	-78.27731	607.34467	254.32828	-140.33955	539.59613	239.28267	-28.14787	531.59070	309.15140	-104.60179	331.07898	268.53275	-145.20642	89.23998	279.70786	-41.64983	110.28301	213.25201	-96.33678	46.06688	432.49399	-88.48330	63.21480	376.97720	-61.91475	92.82516	44.95332	170.32396	660.71173	17.98443	143.23389	514.88287	5.71613	35.38512	500.49518	-40.00823	96.22594	313.26810	-209.24576	104.72337	105.56599	-153.75998	13.09742	123.18810	-251.87714	32.78929	80.21408	-37.69060	103.85976	39.93651	-90.82680	56.66779	87.88620																																																																																																																															
191	1.583	303.27676	28.82595	1749.61780	395.20630	8.55596	1623.45337	168.01233	36.70681	1682.33752	296.10211	13.07645	1453.64417	69.37465	19.37541	1557.26392	165.77324	-100.09570	1475.88269	171.95619	146.73418	1460.44958	112.59430	-205.23274	1467.13135	126.12925	249.01010	1460.87878	2.21036	-76.15791	1468.93604	-3.73705	115.40509	1458.79065	-30.47472	-79.66634	1380.14258	66.00197	-237.40370	1329.26624	-9.44352	-264.38593	1152.04041	-1.56888	-167.87640	1143.55920	81.20528	-263.40833	1079.31494	14.80097	-265.45465	947.35345	122.66330	-258.19199	910.22955	123.60732	-307.49881	887.48743	144.55792	-260.00491	863.17352	151.61092	-246.12723	811.23322	152.95221	-258.00238	761.36890	142.99094	-336.63571	812.31689	110.05192	-301.46381	746.31750	90.86317	-249.56757	777.59399	75.18472	281.78043	1314.51758	22.24235	302.25067	1143.17554	8.44954	211.31354	1114.19214	114.02656	300.54700	1071.25830	69.47403	331.65326	962.00751	170.68820	307.84985	918.74915	156.44208	352.41074	886.18225	201.85152	308.73135	869.12366	225.89494	285.46902	826.30060	242.62309	291.50031	779.49255	197.52142	368.29517	794.65820	206.36134	339.55554	734.60608	195.35820	280.83917	730.51233	-55.65166	10.31969	1104.36597	141.83075	-175.15466	1045.97253	130.61383	180.13759	1046.97607	192.92081	-169.93701	681.07977	290.22113	-77.95444	607.74072	260.59113	-141.36131	540.95294	245.26482	-29.24410	532.33405	313.21317	-104.56383	331.33426	270.06290	-145.66573	88.96526	281.54282	-42.12750	110.29785	214.09503	-96.93674	46.35871	435.34189	-87.23553	61.24810	377.75183	-61.67501	91.24255	50.87572	169.53889	661.48553	24.70143	143.25279	515.53748	12.63151	34.43815	501.65671	-36.25718	96.51085	314.38892	-207.55997	105.36530	108.75946	-151.03688	13.71624	125.41454	-251.01933	33.04915	83.77025	-37.69060	103.85976	39.93651	-89.29090	56.95099	89.10053																																																																																																																															
192	1.592	309.43335	25.54263	1749.39526	401.92780	5.79109	1623.96533	174.10846	35.89116	1683.11987	303.92050	11.19953	1454.73352	74.96352	20.64143	1558.04846	173.24342	-102.27528	1476.46069	178.94145	144.51524	1460.94116	119.75486	-207.45987	1467.73010	130.22691	247.82758	1461.06323	8.27140	-78.20999	1469.91345	3.25251	113.95743	1459.24414	-24.23993	-80.88334	1380.01050	73.41233	-239.38535	1329.51904	-2.00164	-265.27893	1151.47168	4.56871	-169.71172	1144.75818	89.25735	-264.03632	1079.82275	23.76627	-267.88235	948.05383	130.63397	-257.15448	908.62122	133.61095	-307.53845	887.28601	151.73978	-260.08319	861.12518	157.42133	-245.99332	808.80103	155.74603	-258.80011	758.31970	150.65536	-337.64059	812.08441	115.26631	-304.27115	746.03375	93.17013	-253.31926	777.37598	79.31339	278.89722	1315.92883	26.26692	300.18454	1144.44788	11.99863	209.41533	1115.25232	117.92381	299.15082	1072.48804	73.30760	329.78738	962.91321	174.39839	305.63113	919.21259	159.64395	350.25119	886.48260	205.38667	307.68759	869.36462	229.16246	283.65994	826.10272	245.23219	289.76172	778.97241	199.03828	366.27560	794.47852	208.23756	338.11646	735.15729	199.04819	279.41800	730.91357	-48.97910	8.84345	1105.18396	149.07463	-175.39133	1046.38013	136.89629	180.33899	1047.58813	200.27574	-170.04044	681.90100	296.33017	-77.55436	608.09668	267.33612	-141.35245	541.12250	251.40671	-30.00787	533.47528	317.38690	-103.92062	330.56931	271.00201	-145.94507	88.92936	282.85135	-41.89676	110.41248	215.07024	-98.00353	46.63622	436.72150	-87.52668	59.30151	379.47827	-61.43818	89.37717	59.03125	168.74840	661.98486	32.79555	143.58090	516.34766	19.88210	33.63970	502.47253	-31.51595	97.12513	315.10382	-206.30998	105.05585	111.57481	-149.47627	14.07009	127.42307	-248.78334	33.56981	87.57424	-37.59998	103.79666	39.73756	-88.12521	56.91405	89.78608																																																																																																																															
